<?xml version="1.0" encoding="UTF-8"?>
<svg height="128px" viewBox="0 0 128 128" width="128px" xmlns="http://www.w3.org/2000/svg">
    <g fill="#ffb13b">
        <g stroke="#000000" stroke-width="38.008598">
            <path d="m -84.147794 -15.852902 c -8.756939 -8.748776 -22.950776 -8.752999 -31.69947 0.00394 c -8.761821 8.751501 -8.756695 22.94156 -0.005194 31.703463 c 8.756938 8.748775 22.950776 8.752998 31.69947 -0.00394 l 168.302777 -0.00303 c 8.751501 8.761903 22.941493 8.756843 31.703315 0.005342 c 8.748693 -8.756938 8.75285 -22.950842 -0.004089 -31.699618 c -8.751501 -8.761903 -22.941493 -8.756843 -31.703315 -0.005342 z m 0 0" transform="matrix(0.35919 0.14878 -0.148781 0.359188 63.999242 63.998863)"/>
            <path d="m -84.152928 -15.849609 c -8.748775 -8.756939 -22.942679 -8.752783 -31.699618 -0.00409 c -8.751501 8.761821 -8.756561 22.951814 0.005341 31.703315 c 8.748776 8.756939 22.94268 8.752783 31.699618 0.00409 l 168.294282 -0.000023 c 8.761903 8.751502 22.951962 8.756628 31.703463 -0.005192 c 8.756939 -8.748694 8.752717 -22.942531 0.003941 -31.69947 c -8.761902 -8.751502 -22.951961 -8.756628 -31.703463 0.005193 z m 0 0" transform="matrix(0.148781 0.359188 -0.35919 0.14878 63.999242 63.998863)"/>
            <path d="m -84.145233 -15.848028 c -8.760783 -8.757976 -22.950842 -8.75285 -31.703463 -0.005194 c -8.758058 8.760784 -8.752998 22.950776 -0.005342 31.703315 c 8.760784 8.757976 22.950843 8.75285 31.703463 0.005194 l 168.303564 -0.003816 c 8.747656 8.752539 22.94156 8.756695 31.699618 -0.004089 c 8.75262 -8.747656 8.756843 -22.941493 -0.00394 -31.699469 c -8.747656 -8.752539 -22.94156 -8.756695 -31.699618 0.004088 z m 0 0" transform="matrix(-0.148781 0.359188 -0.35919 -0.14878 63.999242 63.998863)"/>
            <path d="m -84.147307 -15.848211 c -8.757976 -8.760784 -22.951813 -8.756562 -31.69947 -0.003941 c -8.760783 8.758057 -8.756628 22.951961 -0.004089 31.699618 c 8.757976 8.760783 22.951813 8.756561 31.69947 0.003941 l 168.302777 0.003036 c 8.752538 8.747657 22.942531 8.752717 31.703315 -0.005341 c 8.747656 -8.75262 8.752783 -22.942679 -0.005193 -31.703463 c -8.752538 -8.747656 -22.942531 -8.752716 -31.703315 0.005341 z m 0 0" transform="matrix(-0.35919 0.14878 -0.148781 -0.359188 63.999242 63.998863)"/>
        </g>
        <path d="m 36.132812 45.785156 c -1.84375 -4.445312 -6.941406 -6.558594 -11.386718 -4.714844 c -4.449219 1.839844 -6.558594 6.9375 -4.71875 11.386719 c 1.84375 4.445313 6.941406 6.558594 11.386718 4.714844 l 60.453126 25.039063 c 1.839843 4.449218 6.9375 6.558593 11.386718 4.71875 c 4.445313 -1.84375 6.558594 -6.941407 4.714844 -11.386719 c -1.839844 -4.449219 -6.9375 -6.558594 -11.386719 -4.71875 z m 0 0"/>
        <path d="m 57.171875 31.414062 c 1.84375 -4.445312 -0.269531 -9.542968 -4.714844 -11.386718 c -4.449219 -1.839844 -9.546875 0.269531 -11.386719 4.71875 c -1.84375 4.445312 0.269532 9.542968 4.714844 11.386718 l 25.039063 60.449219 c -1.839844 4.449219 0.269531 9.546875 4.71875 11.386719 c 4.445312 1.84375 9.542969 -0.269531 11.386719 -4.714844 c 1.839843 -4.449218 -0.269532 -9.546875 -4.71875 -11.386718 z m 0 0"/>
        <path d="m 82.210938 36.132812 c 4.449218 -1.84375 6.558593 -6.941406 4.71875 -11.386718 c -1.84375 -4.449219 -6.941407 -6.558594 -11.386719 -4.71875 c -4.449219 1.84375 -6.558594 6.941406 -4.71875 11.386718 l -25.039063 60.453126 c -4.445312 1.839843 -6.558594 6.9375 -4.714844 11.386718 c 1.839844 4.445313 6.9375 6.558594 11.386719 4.714844 c 4.445313 -1.839844 6.558594 -6.9375 4.714844 -11.386719 z m 0 0"/>
        <path d="m 96.582031 57.171875 c 4.449219 1.84375 9.546875 -0.269531 11.386719 -4.714844 c 1.84375 -4.449219 -0.269531 -9.546875 -4.714844 -11.386719 c -4.449218 -1.84375 -9.546875 0.269532 -11.386718 4.714844 l -60.453126 25.039063 c -4.445312 -1.839844 -9.542968 0.269531 -11.386718 4.71875 c -1.839844 4.445312 0.269531 9.542969 4.71875 11.386719 c 4.445312 1.839843 9.542968 -0.269532 11.386718 -4.71875 z m 0 0"/>
    </g>
</svg>
