<?xml version="1.0" encoding="UTF-8"?>
<svg height="16px" viewBox="0 0 16 16" width="16px" xmlns="http://www.w3.org/2000/svg">
    <g fill="none" stroke="#000000" stroke-width="38.008598">
        <path d="m -84.147794 -15.852902 c -8.756939 -8.748776 -22.950776 -8.752999 -31.69947 0.00394 c -8.761821 8.751501 -8.756695 22.94156 -0.005194 31.703463 c 8.756938 8.748775 22.950776 8.752998 31.69947 -0.00394 l 168.302777 -0.00303 c 8.751501 8.761903 22.941493 8.756843 31.703315 0.005342 c 8.748693 -8.756938 8.75285 -22.950842 -0.004089 -31.699618 c -8.751501 -8.761903 -22.941493 -8.756843 -31.703315 -0.005342 z m 0 0" transform="matrix(0.35919 0.14878 -0.148781 0.359188 -96.000758 63.998863)"/>
        <path d="m -84.152928 -15.849609 c -8.748775 -8.756939 -22.942679 -8.752783 -31.699618 -0.00409 c -8.751501 8.761821 -8.756561 22.951814 0.005341 31.703315 c 8.748776 8.756939 22.94268 8.752783 31.699618 0.00409 l 168.294282 -0.000023 c 8.761903 8.751502 22.951962 8.756628 31.703463 -0.005192 c 8.756939 -8.748694 8.752717 -22.942531 0.003941 -31.69947 c -8.761902 -8.751502 -22.951961 -8.756628 -31.703463 0.005193 z m 0 0" transform="matrix(0.148781 0.359188 -0.35919 0.14878 -96.000758 63.998863)"/>
        <path d="m -84.145233 -15.848028 c -8.760783 -8.757976 -22.950842 -8.75285 -31.703463 -0.005194 c -8.758058 8.760784 -8.752998 22.950776 -0.005342 31.703315 c 8.760784 8.757976 22.950843 8.75285 31.703463 0.005194 l 168.303564 -0.003816 c 8.747656 8.752539 22.94156 8.756695 31.699618 -0.004089 c 8.75262 -8.747656 8.756843 -22.941493 -0.00394 -31.699469 c -8.747656 -8.752539 -22.94156 -8.756695 -31.699618 0.004088 z m 0 0" transform="matrix(-0.148781 0.359188 -0.35919 -0.14878 -96.000758 63.998863)"/>
        <path d="m -84.147307 -15.848211 c -8.757976 -8.760784 -22.951813 -8.756562 -31.69947 -0.003941 c -8.760783 8.758057 -8.756628 22.951961 -0.004089 31.699618 c 8.757976 8.760783 22.951813 8.756561 31.69947 0.003941 l 168.302777 0.003036 c 8.752538 8.747657 22.942531 8.752717 31.703315 -0.005341 c 8.747656 -8.75262 8.752783 -22.942679 -0.005193 -31.703463 c -8.752538 -8.747656 -22.942531 -8.752716 -31.703315 0.005341 z m 0 0" transform="matrix(-0.35919 0.14878 -0.148781 -0.359188 -96.000758 63.998863)"/>
    </g>
    <path d="m 3.003906 4.734375 c -0.328125 -0.796875 -1.242187 -1.175781 -2.039062 -0.84375 c -0.796875 0.328125 -1.175782 1.242187 -0.847656 2.039063 c 0.332031 0.796874 1.246093 1.175781 2.042968 0.847656 l 10.835938 4.488281 c 0.328125 0.796875 1.242187 1.175781 2.039062 0.84375 c 0.796875 -0.328125 1.175782 -1.242187 0.847656 -2.039063 c -0.332031 -0.796874 -1.246093 -1.175781 -2.042968 -0.847656 z m 0 0"/>
    <path d="m 6.777344 2.160156 c 0.328125 -0.796875 -0.050782 -1.710937 -0.847656 -2.042968 c -0.796876 -0.328126 -1.710938 0.050781 -2.039063 0.847656 c -0.332031 0.796875 0.046875 1.710937 0.84375 2.039062 l 4.488281 10.835938 c -0.328125 0.796875 0.050782 1.710937 0.847656 2.042968 c 0.796876 0.328126 1.710938 -0.050781 2.039063 -0.847656 c 0.332031 -0.796875 -0.046875 -1.710937 -0.84375 -2.039062 z m 0 0"/>
    <path d="m 11.265625 3.003906 c 0.796875 -0.328125 1.175781 -1.242187 0.84375 -2.039062 c -0.328125 -0.796875 -1.242187 -1.175782 -2.039063 -0.847656 c -0.796874 0.332031 -1.175781 1.246093 -0.847656 2.042968 l -4.488281 10.835938 c -0.796875 0.328125 -1.175781 1.242187 -0.84375 2.039062 c 0.328125 0.796875 1.242187 1.175782 2.039063 0.847656 c 0.796874 -0.332031 1.175781 -1.246093 0.847656 -2.042968 z m 0 0"/>
    <path d="m 13.839844 6.777344 c 0.796875 0.328125 1.710937 -0.050782 2.042968 -0.847656 c 0.328126 -0.796876 -0.050781 -1.710938 -0.847656 -2.039063 c -0.796875 -0.332031 -1.710937 0.046875 -2.039062 0.84375 l -10.835938 4.488281 c -0.796875 -0.328125 -1.710937 0.050782 -2.042968 0.847656 c -0.328126 0.796876 0.050781 1.710938 0.847656 2.039063 c 0.796875 0.332031 1.710937 -0.046875 2.039062 -0.84375 z m 0 0"/>
</svg>
