<svg height="128" width="128" xmlns="http://www.w3.org/2000/svg" xmlns:xlink="http://www.w3.org/1999/xlink">
    <linearGradient id="a" gradientUnits="userSpaceOnUse">
        <stop offset="0" stop-color="#c0c9cf"/>
        <stop offset=".313" stop-color="#edeff0"/>
        <stop offset=".422" stop-color="#e1e3e6"/>
        <stop offset="1" stop-color="#c0c9cf"/>
    </linearGradient>
    <linearGradient id="d" x1="96" x2="112" xlink:href="#a" y1="17" y2="17"/>
    <linearGradient id="e" gradientUnits="userSpaceOnUse" x1="12" x2="80" y1="56" y2="56">
        <stop offset="0" stop-color="#c64600"/>
        <stop offset=".038" stop-color="#ffbe6f"/>
        <stop offset=".077" stop-color="#e66100"/>
        <stop offset=".923" stop-color="#e66100"/>
        <stop offset=".962" stop-color="#ffa348"/>
        <stop offset="1" stop-color="#c64600"/>
    </linearGradient>
    <linearGradient id="b" gradientUnits="userSpaceOnUse">
        <stop offset="0" stop-color="#7a8599"/>
        <stop offset=".249" stop-color="#a4acb7"/>
        <stop offset="1" stop-color="#5d5f74"/>
    </linearGradient>
    <linearGradient id="f" x1="92" x2="116" xlink:href="#b" y1="22" y2="22"/>
    <linearGradient id="g" x1="96" x2="112" xlink:href="#a" y1="65" y2="65"/>
    <clipPath id="h">
        <path d="M96 30h16v50H96zm0 0"/>
    </clipPath>
    <clipPath id="i">
        <path d="M104 30c-4.418 0-8 2.238-8 5v45h16V35c0-2.762-3.582-5-8-5zm0 0"/>
    </clipPath>
    <filter id="c" height="100%" width="100%" x="0%" y="0%">
        <feColorMatrix in="SourceGraphic" values="0 0 0 0 1 0 0 0 0 1 0 0 0 0 1 0 0 0 1 0"/>
    </filter>
    <mask id="k">
        <g filter="url(#c)">
            <path fill-opacity=".05" d="M0 0h128v128H0z"/>
        </g>
    </mask>
    <clipPath id="j">
        <path d="M0 0h192v152H0z"/>
    </clipPath>
    <mask id="m">
        <g filter="url(#c)">
            <path fill-opacity=".05" d="M0 0h128v128H0z"/>
        </g>
    </mask>
    <clipPath id="l">
        <path d="M0 0h192v152H0z"/>
    </clipPath>
    <linearGradient id="n" x1="92" x2="116" xlink:href="#b" y1="78" y2="78"/>
    <linearGradient id="o" gradientTransform="matrix(1 0 0 2 57 -454)" x1="54" x2="54" xlink:href="#a" y1="278" y2="282"/>
    <linearGradient id="p" x1="96" x2="112" xlink:href="#a" y1="93" y2="93"/>
    <radialGradient id="q" cx="46" cy="102" gradientUnits="userSpaceOnUse" r="8">
        <stop offset="0" stop-color="#fff"/>
        <stop offset=".375" stop-color="#e4e6e8"/>
        <stop offset="1" stop-color="#c0c9cf"/>
    </radialGradient>
    <linearGradient id="r" gradientTransform="matrix(1 0 0 2 0 -454)" x1="54" x2="54" xlink:href="#a" y1="278" y2="282"/>
    <linearGradient id="s" gradientTransform="rotate(180 104 197)" gradientUnits="userSpaceOnUse" x1="92.395" x2="108" y1="277.155" y2="290">
        <stop offset="0" stop-color="#8a929d"/>
        <stop offset="1" stop-color="#c0c9cf"/>
    </linearGradient>
    <clipPath id="t">
        <path d="M96 86h16v42H96zm0 0"/>
    </clipPath>
    <clipPath id="u">
        <path d="M104 86c-4.418 0-8 2.238-8 5v45h16V91c0-2.762-3.582-5-8-5zm0 0"/>
    </clipPath>
    <mask id="w">
        <g filter="url(#c)">
            <path fill-opacity=".05" d="M0 0h128v128H0z"/>
        </g>
    </mask>
    <clipPath id="v">
        <path d="M0 0h192v152H0z"/>
    </clipPath>
    <path d="M104 10c-4.418 0-8 2.238-8 5v9h16v-9c0-2.762-3.582-5-8-5zm0 0" fill="url(#d)"/>
    <path d="M20 20h52a8 8 0 0 1 8 8v60a8 8 0 0 1-8 8H20a8 8 0 0 1-8-8V28a8 8 0 0 1 8-8zm0 0" fill="url(#e)"/>
    <path d="m28 12-8 8v4h56l12 12h26l2-2V24H94L80 12zm60 68L76 92H20v4l8 8h52l12-12h22l2-2-2-2 2-8zm0 0" fill="#5d5f74"/>
    <path d="M88 36v-4L76 20v4zm0 0" fill-opacity=".2"/>
    <path d="m28 8-8 8v4h56l12 12h26l2 2V22l-2-2H94L80 8zm60 68L76 88H20v4l8 8h52l12-12h22l2 2V78l-2.035-2zm0 0" fill="#7a8599"/>
    <path d="M20 12h52a8 8 0 0 1 8 8v56a8 8 0 0 1-8 8H20a8 8 0 0 1-8-8V20a8 8 0 0 1 8-8zm0 0" fill="#ffa348"/>
    <g fill="#fff">
        <path d="M39.305 204a3.903 3.903 0 0 0-3.578 2.412 3.905 3.905 0 0 0 2.113 5.103l3.058 7.384-7.382-3.058a3.905 3.905 0 0 0-5.102-2.113 3.904 3.904 0 1 0 2.984 7.215l7.387 3.059-7.387 3.054a3.905 3.905 0 1 0-2.984 7.22 3.907 3.907 0 0 0 5.102-2.117l7.382-3.06-3.058 7.39a3.898 3.898 0 0 0-2.113 5.098 3.898 3.898 0 0 0 5.101 2.113 3.905 3.905 0 0 0 2.113-5.103l3.059-7.38 3.059 7.38a3.905 3.905 0 0 0 2.113 5.103 3.898 3.898 0 0 0 5.101-2.113 3.902 3.902 0 0 0-2.113-5.098l-3.058-7.39 7.386 3.06a3.903 3.903 0 0 0 5.102 2.117 3.908 3.908 0 0 0-2.992-7.22l-7.383-3.054 7.383-3.06a3.905 3.905 0 1 0-2.11-5.102l-7.386 3.06 3.058-7.385a3.908 3.908 0 0 0 2.113-5.103 3.905 3.905 0 0 0-7.215 2.99L46 216.786l-3.059-7.384a3.905 3.905 0 0 0-2.113-5.103 3.85 3.85 0 0 0-1.523-.299zm0 0" stroke="#c64600" stroke-width="8.431" transform="matrix(1 0 0 .90031 0 -153.664)"/>
        <path d="M39.305 30c-1.52.012-2.961.824-3.578 2.172-.829 1.793.12 3.848 2.113 4.594l3.058 6.648-7.382-2.754c-.828-1.793-3.114-2.648-5.102-1.902-1.996.742-2.941 2.797-2.117 4.594.828 1.793 3.11 2.644 5.101 1.902l7.387 2.754-7.387 2.75c-1.992-.742-4.273.11-5.101 1.906-.824 1.793.121 3.848 2.117 4.594 1.988.742 4.273-.11 5.102-1.906l7.382-2.754-3.058 6.652c-1.992.742-2.942 2.797-2.113 4.59.824 1.797 3.109 2.648 5.101 1.902 1.992-.742 2.938-2.797 2.113-4.594L46 54.504l3.059 6.644c-.825 1.797.12 3.852 2.113 4.594 1.992.746 4.277-.105 5.101-1.902.825-1.793-.12-3.848-2.113-4.59l-3.058-6.652 7.386 2.754c.825 1.796 3.106 2.648 5.102 1.906 1.992-.746 2.937-2.801 2.113-4.594-.824-1.797-3.11-2.648-5.105-1.906l-7.383-2.75 7.383-2.754c1.996.742 4.28-.11 5.105-1.902.824-1.797-.121-3.852-2.113-4.594-1.996-.746-4.278.11-5.102 1.902l-7.386 2.754 3.058-6.648c1.992-.746 2.938-2.801 2.113-4.594-.824-1.797-3.109-2.645-5.101-1.902-1.992.742-2.938 2.796-2.113 4.593L46 41.512l-3.059-6.649c.825-1.797-.12-3.851-2.113-4.593a4.223 4.223 0 0 0-1.523-.27zm0 0"/>
        <path d="M28 104v-4l-8-8v4zm0 0" fill-opacity=".4"/>
    </g>
    <path d="M80 104v-4l12-12v4zm0 0" fill-opacity=".2"/>
    <path d="M104 14c-5.613 0-10.3 2.543-11.625 6H92v12h22l2 2V22c0-4.434-5.352-8-12-8zm0 0" fill="url(#f)"/>
    <path d="M104 26c6.629 0 12 3.582 12 8s-5.371 8-12 8-12-3.582-12-8 5.371-8 12-8zm0 0" fill="#5d5f74"/>
    <path d="M104 30c-4.418 0-8 2.238-8 5v45h16V35c0-2.762-3.582-5-8-5zm0 0" fill="url(#g)"/>
    <g clip-path="url(#h)">
        <g clip-path="url(#i)">
            <g clip-path="url(#j)" mask="url(#k)" transform="translate(-8 -16)">
                <path d="M116.477 45.977c-5.102-.004-10.04 1.96-12.477 6.023v1c2.438-4.063 7.375-6.027 12.477-6.023 1.175 0 2.359.105 3.523.316v-1a19.797 19.797 0 0 0-3.523-.316zm0 8c-5.102-.004-10.04 1.96-12.477 6.023v1c2.438-4.063 7.375-6.027 12.477-6.023 1.175 0 2.359.105 3.523.316v-1a19.797 19.797 0 0 0-3.523-.316zm0 8c-5.102-.004-10.04 1.96-12.477 6.023v1c2.438-4.063 7.375-6.027 12.477-6.023 1.175 0 2.359.105 3.523.316v-1a19.797 19.797 0 0 0-3.523-.316zm0 8c-5.102-.004-10.04 1.96-12.477 6.023v1c2.438-4.063 7.375-6.027 12.477-6.023 1.175 0 2.359.105 3.523.316v-1a19.797 19.797 0 0 0-3.523-.316zm0 8c-5.102-.004-10.04 1.96-12.477 6.023v1c2.438-4.063 7.375-6.027 12.477-6.023 1.175 0 2.359.105 3.523.316v-1a19.797 19.797 0 0 0-3.523-.316zm0 8c-5.102-.004-10.04 1.96-12.477 6.023v1c2.438-4.063 7.375-6.027 12.477-6.023 1.175 0 2.359.105 3.523.316v-1a19.797 19.797 0 0 0-3.523-.316zm0 0"/>
            </g>
            <g clip-path="url(#l)" mask="url(#m)" transform="translate(-8 -16)">
                <path d="M116.477 45.977c-5.102-.004-10.04 1.96-12.477 6.023v4c3-5 8.898-7.492 16-6v-3.707a19.797 19.797 0 0 0-3.523-.316zm0 8c-5.102-.004-10.04 1.96-12.477 6.023v4c3-5 8.898-7.492 16-6v-3.707a19.797 19.797 0 0 0-3.523-.316zm0 8c-5.102-.004-10.04 1.96-12.477 6.023v4c3-5 8.898-7.492 16-6v-3.707a19.797 19.797 0 0 0-3.523-.316zm0 8c-5.102-.004-10.04 1.96-12.477 6.023v4c3-5 8.898-7.492 16-6v-3.707a19.797 19.797 0 0 0-3.523-.316zm0 8c-5.102-.004-10.04 1.96-12.477 6.023v4c3-5 8.898-7.492 16-6v-3.707a19.797 19.797 0 0 0-3.523-.316zm0 8c-5.102-.004-10.04 1.96-12.477 6.023v4c3-5 8.898-7.492 16-6v-3.707a19.797 19.797 0 0 0-3.523-.316zm0 0"/>
            </g>
        </g>
    </g>
    <path d="M104 70c-5.613 0-10.3 2.543-11.625 6H92v12h22l2 2V78c0-4.434-5.352-8-12-8zm0 0" fill="url(#n)"/>
    <path d="M104 82c6.629 0 12 3.582 12 8s-5.371 8-12 8-12-3.582-12-8 5.371-8 12-8zm0 0" fill="#5d5f74"/>
    <path d="M112 102h7c1.105 0 2 1.79 2 4s-.895 4-2 4h-7c-1.105 0-2-1.79-2-4s.895-4 2-4zm0 0" fill="url(#o)"/>
    <path d="M104 86c-4.418 0-8 2.238-8 5v21h16V91c0-2.762-3.582-5-8-5zm0 0" fill="url(#p)"/>
    <path d="M56 106a8 8 0 1 1-16 0 8 8 0 0 1 16 0zm0 0" fill="url(#q)"/>
    <path d="M55 102h41c1.105 0 2 1.79 2 4s-.895 4-2 4H55c-1.105 0-2-1.79-2-4s.895-4 2-4zm0 0" fill="url(#r)"/>
    <path d="M96 111c0-2.762 3.582-5 8-5s8 2.238 8 5-3.582 5-8 5-8-2.238-8-5zm0 0" fill="url(#s)"/>
    <g clip-path="url(#t)">
        <g clip-path="url(#u)">
            <g clip-path="url(#v)" mask="url(#w)" transform="translate(-8 -16)">
                <path d="M116.477 99.977c-5.102-.004-10.04 1.96-12.477 6.023v4c3-5 8.898-7.492 16-6v-3.707a19.797 19.797 0 0 0-3.523-.316zm0 0"/>
            </g>
        </g>
    </g>
</svg>
