<svg height="16" width="16" xmlns="http://www.w3.org/2000/svg">
    <g fill="#241f31">
        <path d="M2 2V.988c0-.988 1-1 1-1l10 .024c1 0 1 1 1 1h1v1zM2 10.977v1.011s0 1.012 1 1l10 .024c1 0 1-1 1-1h1v-1zm0 0"/>
        <path d="M11 2.012h2v14h-2zm0 0"/>
        <path d="M3.5 14.012h11a.501.501 0 0 1 0 1h-11a.501.501 0 0 1 0-1zM3 4v5s0 1 1 1.012L9 10s1 0 1-1V4c0-1-1-1-1-1H4S3 3 3 4zm2.645.012a.52.52 0 0 1 .19.035c.25.105.368.39.267.64l.382.922.383-.921a.493.493 0 0 1 .266-.641.489.489 0 0 1 .371.902l-.383.922.922-.379a.49.49 0 0 1 .906.371.493.493 0 0 1-.64.266l-.922.383.922.383a.488.488 0 1 1 .375.902.493.493 0 0 1-.641-.266l-.922-.383.383.922c.25.106.367.39.266.64a.488.488 0 0 1-.903-.374l-.383-.922-.382.922a.487.487 0 0 1-.266.637.487.487 0 1 1-.371-.903l.379-.922-.918.383a.493.493 0 0 1-.64.266.493.493 0 0 1-.266-.64.485.485 0 0 1 .636-.262l.926-.383-.926-.383a.487.487 0 1 1-.371-.902.49.49 0 0 1 .64.265l.919.38-.38-.923a.489.489 0 0 1-.265-.636.485.485 0 0 1 .446-.301zm0 0"/>
    </g>
</svg>
